<?xml version="1.0" encoding="UTF-8" standalone="no"?>
<svg
   xmlns:dc="http://purl.org/dc/elements/1.1/"
   xmlns:cc="http://creativecommons.org/ns#"
   xmlns:rdf="http://www.w3.org/1999/02/22-rdf-syntax-ns#"
   xmlns:svg="http://www.w3.org/2000/svg"
   xmlns="http://www.w3.org/2000/svg"
   xmlns:sodipodi="http://sodipodi.sourceforge.net/DTD/sodipodi-0.dtd"
   xmlns:inkscape="http://www.inkscape.org/namespaces/inkscape"
   version="1.1"
   viewBox="0 0 399.73128 411.90508"
   enable-background="new 0 0 358.76 358.76"
   id="svg4"
   sodipodi:docname="diagnostic.svg"
   width="399.73129"
   height="411.90509"
   inkscape:version="0.92.3 (d244b95, 2018-08-02)">
  <metadata
     id="metadata10">
    <rdf:RDF>
      <cc:Work
         rdf:about="">
        <dc:format>image/svg+xml</dc:format>
        <dc:type
           rdf:resource="http://purl.org/dc/dcmitype/StillImage" />
        <dc:title></dc:title>
      </cc:Work>
    </rdf:RDF>
  </metadata>
  <defs
     id="defs8" />
  <sodipodi:namedview
     pagecolor="#ffffff"
     bordercolor="#666666"
     borderopacity="1"
     objecttolerance="10"
     gridtolerance="10"
     guidetolerance="10"
     inkscape:pageopacity="0"
     inkscape:pageshadow="2"
     inkscape:window-width="1871"
     inkscape:window-height="1052"
     id="namedview6"
     showgrid="false"
     fit-margin-top="0"
     fit-margin-left="0"
     fit-margin-right="0"
     fit-margin-bottom="0"
     inkscape:zoom="1.3156427"
     inkscape:cx="249.45836"
     inkscape:cy="182.59939"
     inkscape:window-x="49"
     inkscape:window-y="0"
     inkscape:window-maximized="1"
     inkscape:current-layer="svg4" />
  <path
     inkscape:connector-curvature="0"
     style="fill:none;stroke:#3d4350;stroke-width:28.04699516;stroke-miterlimit:10;stroke-opacity:1"
     stroke-miterlimit="10"
     d="M 311.9536,257.8141 H 41.125818 A 27.102322,27.102322 0 0 1 14.023498,230.74435 V 41.158388 c 0,-14.98445 12.15044,-27.13489 27.10232,-27.13489 H 311.9536 c 14.95188,0 27.10232,12.15044 27.10232,27.10232 V 230.71177 c 0,14.98446 -12.15044,27.10233 -27.10232,27.10233 z"
     id="path3209" />
  <path
     inkscape:connector-curvature="0"
     style="fill:#3d4350;fill-opacity:1;stroke:#3d4350;stroke-width:28.04699516;stroke-miterlimit:10"
     stroke-miterlimit="10"
     d="M 54.644408,217.19319 H 298.43501 V 54.644403 H 54.644408 Z"
     id="path3211" />
  <path
     inkscape:connector-curvature="0"
     style="fill:none;stroke:#3d4350;stroke-width:28.04699516;stroke-linecap:round;stroke-linejoin:round;stroke-miterlimit:10;stroke-opacity:1"
     stroke-miterlimit="10"
     d="M 149.43739,311.98617 V 257.8141 m 54.20464,54.17207 V 257.8141 m 27.06975,54.17207 H 122.36764"
     id="path3213" />
  <path
     d="m 370.56992,341.65355 v -45.27141 c 0,-17.53779 -14.26807,-31.805 -31.805,-31.805 h -0.51109 c -17.53694,0 -31.805,14.26807 -31.805,31.805 v 64.67023 c 0,20.64929 -16.80015,37.44858 -37.44944,37.44858 h -0.88727 c -20.64929,0 -37.44943,-16.79929 -37.44943,-37.44858 v -83.78712 c 38.35745,-3.29915 68.56433,-35.56941 68.56433,-74.76659 v -60.61265 c 8.33046,-2.73358 14.36406,-10.57889 14.36406,-19.81132 0,-11.49643 -9.35263,-20.84992 -20.84993,-20.84992 -11.49729,0 -20.84993,9.35349 -20.84993,20.84992 0,9.23243 6.03446,17.07774 14.36406,19.81132 v 60.61352 c 0,34.22987 -27.84863,62.07848 -62.07847,62.07848 h -1.38539 c -34.22985,0 -62.0776,-27.84861 -62.0776,-62.07848 v -60.61352 c 8.33045,-2.73358 14.36405,-10.57889 14.36405,-19.81132 8.6e-4,-11.49729 -9.35263,-20.85079 -20.84993,-20.85079 -11.49729,0 -20.84992,9.3535 -20.84992,20.84993 0,9.23242 6.03446,17.07774 14.36405,19.81132 v 60.61351 c 0,39.66763 30.93676,72.24143 69.94886,74.87296 v 83.68075 c 0,27.80192 22.6184,50.42032 50.42119,50.42032 h 0.88727 c 27.80191,0 50.42119,-22.6184 50.42119,-50.42032 v -64.67023 c 0,-10.38518 8.44893,-18.83324 18.83324,-18.83324 h 0.5111 c 10.38518,0 18.83325,8.44893 18.83325,18.83324 v 45.27141 c -16.32797,3.05355 -28.72811,17.40462 -28.72811,34.60517 0,19.41698 15.797,35.21397 35.21398,35.21397 19.41699,0 35.21485,-15.79699 35.21485,-35.21397 0,-17.20055 -12.40014,-31.55075 -28.72897,-34.60517 z m -77.82877,-227.4579 c 4.3438,0 7.87817,3.53437 7.87817,7.87818 0,4.3438 -3.53437,7.87817 -7.87817,7.87817 -4.34381,0 -7.87818,-3.5335 -7.87818,-7.87817 0,-4.34467 3.53437,-7.87818 7.87818,-7.87818 z m -138.51321,0 c 4.34381,0 7.87818,3.53437 7.87818,7.87818 0,4.3438 -3.53437,7.87817 -7.87818,7.87817 -4.3438,0 -7.87817,-3.5335 -7.87817,-7.87817 0,-4.34467 3.53437,-7.87818 7.87817,-7.87818 z m 209.8561,284.30617 c -12.26436,0 -22.24222,-9.97788 -22.24222,-22.24223 0,-12.26436 9.97786,-22.24224 22.24222,-22.24224 12.26522,0 22.24309,9.97788 22.24309,22.24224 0,12.26435 -9.97787,22.24223 -22.24309,22.24223 z"
     id="path2"
     style="fill:#68c8ed;fill-opacity:1;stroke:#68c8ed;stroke-width:0.86478335;stroke-opacity:1"
     inkscape:connector-curvature="0" />
  <flowRoot
     xml:space="preserve"
     id="flowRoot823"
     style="font-style:normal;font-weight:normal;font-size:40px;line-height:1.25;font-family:sans-serif;letter-spacing:0px;word-spacing:0px;fill:#ffffff;fill-opacity:1;stroke:none"
     transform="translate(-3.0403414,-1.5201724)"><flowRegion
       id="flowRegion825"
       style="fill:#ffffff;fill-opacity:1"><rect
         id="rect827"
         width="30.485083"
         height="41.065434"
         x="57.68475"
         y="56.164574"
         style="fill:#ffffff;fill-opacity:1" /></flowRegion><flowPara
       id="flowPara829">$</flowPara></flowRoot>  <text
     xml:space="preserve"
     style="font-style:normal;font-weight:normal;font-size:40px;line-height:1.25;font-family:sans-serif;letter-spacing:0px;word-spacing:0px;fill:#000000;fill-opacity:1;stroke:none"
     x="47.013378"
     y="86.450035"
     id="text833"><tspan
       sodipodi:role="line"
       id="tspan831"
       x="47.013378"
       y="86.450035"
       style="font-size:33.33333206px;fill:#ffffff;fill-opacity:1">:~$ arpspoof -i</tspan></text>
</svg>
