<svg xmlns="http://www.w3.org/2000/svg" width="399.731" height="411.905">
  <path fill="none" stroke="#3d4350" stroke-miterlimit="10" stroke-width="28.047" d="M311.954 257.814H41.126a27.102 27.102 0 0 1-27.103-27.07V41.158c0-14.984 12.15-27.135 27.103-27.135h270.828c14.951 0 27.102 12.15 27.102 27.103v189.586c0 14.984-12.15 27.102-27.102 27.102z"/>
  <path fill="#3d4350" stroke="#3d4350" stroke-miterlimit="10" stroke-width="28.047" d="M54.644 217.193h243.791V54.644H54.645z"/>
  <path fill="none" stroke="#3d4350" stroke-linecap="round" stroke-linejoin="round" stroke-miterlimit="10" stroke-width="28.047" d="M149.437 311.986v-54.172m54.205 54.172v-54.172m27.07 54.172H122.368"/>
  <path fill="#68c8ed" stroke="#68c8ed" stroke-width=".865" d="M370.57 341.654v-45.272c0-17.538-14.268-31.805-31.805-31.805h-.511c-17.537 0-31.805 14.268-31.805 31.805v64.67c0 20.65-16.8 37.449-37.45 37.449h-.887c-20.65 0-37.45-16.8-37.45-37.449v-83.787c38.358-3.299 68.565-35.57 68.565-74.766v-60.613c8.33-2.734 14.364-10.579 14.364-19.811 0-11.497-9.353-20.85-20.85-20.85-11.497 0-20.85 9.353-20.85 20.85 0 9.232 6.035 17.077 14.364 19.811V202.5c0 34.23-27.848 62.078-62.078 62.078h-1.386c-34.23 0-62.077-27.849-62.077-62.078v-60.614c8.33-2.734 14.364-10.579 14.364-19.811 0-11.498-9.353-20.851-20.85-20.851-11.497 0-20.85 9.353-20.85 20.85 0 9.232 6.034 17.078 14.364 19.811V202.5c0 39.667 30.937 72.241 69.949 74.873v83.68c0 27.802 22.618 50.42 50.421 50.42H269c27.802 0 50.422-22.618 50.422-50.42v-64.67c0-10.385 8.449-18.833 18.833-18.833h.51c10.386 0 18.834 8.449 18.834 18.833v45.272c-16.328 3.053-28.728 17.404-28.728 34.605 0 19.417 15.797 35.214 35.214 35.214 19.417 0 35.215-15.797 35.215-35.214 0-17.2-12.4-31.551-28.73-34.605zM292.74 114.196c4.344 0 7.878 3.534 7.878 7.878s-3.534 7.878-7.878 7.878-7.878-3.534-7.878-7.878c0-4.345 3.534-7.878 7.878-7.878zm-138.513 0c4.344 0 7.878 3.534 7.878 7.878s-3.534 7.878-7.878 7.878-7.878-3.534-7.878-7.878c0-4.345 3.534-7.878 7.878-7.878zm209.856 284.306c-12.264 0-22.242-9.978-22.242-22.242 0-12.265 9.978-22.243 22.242-22.243 12.265 0 22.243 9.978 22.243 22.243 0 12.264-9.978 22.242-22.243 22.242z"/>
  <text x="47.013" y="86.45" font-family="sans-serif" font-size="40" font-weight="400" letter-spacing="0" style="line-height:1.25" word-spacing="0">
    <tspan x="47.013" y="86.45" fill="#fff" font-size="33.333">:~$ arpspoof -i</tspan>
  </text>
</svg>
