<svg xmlns="http://www.w3.org/2000/svg" xmlns:xlink="http://www.w3.org/1999/xlink" width="300" height="300" fill="none">
  <defs>
    <linearGradient id="a">
      <stop offset="0" stop-color="#31fffe"/>
      <stop offset="1" stop-color="#ff57ff"/>
    </linearGradient>
    <linearGradient id="b" x1="-82.538" x2="384.127" y1="363.744" y2="-69.376" gradientUnits="userSpaceOnUse" xlink:href="#a"/>
  </defs>
  <path fill="url(#b)" fill-rule="evenodd" d="M150 6.106C68.488 6.106 2.467 72.128 2.467 153.64c0 65.283 42.231 120.424 100.876 139.972 7.376 1.29 10.143-3.135 10.143-7.008 0-3.504-.185-15.122-.185-27.478-37.068 6.823-46.657-9.037-49.608-17.335-1.66-4.242-8.852-17.335-15.122-20.84-5.164-2.766-12.54-9.589-.184-9.773 11.618-.185 19.916 10.696 22.683 15.122 13.278 22.314 34.486 16.044 42.969 12.171 1.29-9.59 5.163-16.044 9.405-19.732-32.826-3.689-67.128-16.413-67.128-72.845 0-16.044 5.717-29.322 15.123-39.65-1.476-3.688-6.64-18.81 1.475-39.096 0 0 12.356-3.872 40.572 15.122 11.802-3.319 24.343-4.979 36.883-4.979 12.54 0 25.08 1.66 36.883 4.98 28.216-19.18 40.572-15.123 40.572-15.123 8.114 20.286 2.95 35.408 1.475 39.097 9.405 10.327 15.122 23.42 15.122 39.65 0 56.615-34.486 69.155-67.312 72.844 5.348 4.61 9.959 13.462 9.959 27.293 0 19.733-.185 35.593-.185 40.572 0 3.873 2.767 8.483 10.143 7.008 58.276-19.548 100.507-74.873 100.507-139.972 0-81.512-66.02-147.534-147.533-147.534z" clip-rule="evenodd"/>
</svg>
