<svg xmlns="http://www.w3.org/2000/svg" width="272.977" height="368.281" viewBox="0 0 72.225 97.441">
  <g fill="#262829">
    <path stroke="#262829" stroke-width=".172" d="M70.816 1.554S45.305 31.002 21.163 40.59l16.1 17.933h33.553V27.53l-.98 1.655-5.98-3.613v6.71h-2.029v-6.71l-5.98 3.613-1.032-1.744 6.39-3.47-6.39-3.453 1.033-1.762 5.98 3.613v-6.71h2.028v6.71l5.98-3.613.98 1.673zm0 18.993l-6.337 3.425 6.337 3.441zM54.79 78.044l16.026 17.85v-17.85z"/>
    <g stroke-width=".542" aria-label="Mlem ml" font-family="sans-serif" font-size="53.333" font-weight="400" letter-spacing="0" style="line-height:1.25" text-anchor="middle" word-spacing="0">
      <path d="M1.323 61.594H3.81l3.15 8.4 3.167-8.4h2.488v12.343h-1.628V63.098l-3.183 8.466H6.126l-3.183-8.466v10.839h-1.62zM15.874 61.073h1.521v12.864h-1.521zM28.49 68.927v.744h-6.994q.099 1.57.942 2.398.852.818 2.365.818.876 0 1.694-.215.827-.215 1.637-.645v1.439q-.818.347-1.678.529-.86.182-1.744.182-2.216 0-3.514-1.29-1.29-1.29-1.29-3.489 0-2.273 1.224-3.605 1.232-1.339 3.315-1.339 1.869 0 2.952 1.207 1.09 1.199 1.09 3.266zm-1.521-.447q-.017-1.248-.703-1.992-.678-.744-1.802-.744-1.274 0-2.042.72-.761.718-.877 2.025zM38.196 66.455q.57-1.025 1.364-1.513.794-.488 1.869-.488 1.446 0 2.232 1.017.785 1.009.785 2.877v5.589h-1.53v-5.54q0-1.33-.47-1.975-.472-.645-1.439-.645-1.182 0-1.869.785-.686.786-.686 2.142v5.233h-1.53v-5.54q0-1.339-.47-1.975-.472-.645-1.456-.645-1.165 0-1.851.794-.687.785-.687 2.133v5.233h-1.53v-9.26h1.53v1.439q.521-.852 1.249-1.257.727-.405 1.728-.405 1.008 0 1.711.513.711.512 1.05 1.488zM60.088 66.455q.57-1.025 1.365-1.513.793-.488 1.868-.488 1.447 0 2.232 1.017.786 1.009.786 2.877v5.589h-1.53v-5.54q0-1.33-.471-1.975t-1.439-.645q-1.182 0-1.868.785-.686.786-.686 2.142v5.233h-1.53v-5.54q0-1.339-.471-1.975-.471-.645-1.455-.645-1.166 0-1.852.794-.686.785-.686 2.133v5.233h-1.53v-9.26h1.53v1.439q.52-.852 1.248-1.257.728-.405 1.728-.405 1.009 0 1.711.513.711.512 1.05 1.488zM69.381 61.073h1.521v12.864h-1.521z" style="-inkscape-font-specification:'sans-serif, Normal';font-variant-ligatures:normal;font-variant-caps:normal;font-variant-numeric:normal;font-feature-settings:normal;text-align:center"/>
    </g>
  </g>
</svg>
