<svg xmlns="http://www.w3.org/2000/svg" xmlns:xlink="http://www.w3.org/1999/xlink" width="300" height="300">
  <defs>
    <linearGradient id="a">
      <stop offset="0" stop-color="#31fffe"/>
      <stop offset="1" stop-color="#ff57ff"/>
    </linearGradient>
    <linearGradient id="b" x1="-79.364" x2="406.273" y1="366.788" y2="-95.337" gradientUnits="userSpaceOnUse" xlink:href="#a"/>
  </defs>
  <path fill="url(#b)" d="M149.426 3.822c-80.735 0-146.183 65.46-146.183 146.184 0 80.735 65.448 146.172 146.183 146.172s146.172-65.437 146.172-146.172c0-80.723-65.443-146.184-146.172-146.184zm73.635 116.71c.077 1.579.107 3.164.107 4.767 0 48.684-37.055 104.813-104.813 104.813-20.801 0-40.171-6.097-56.473-16.545a75.34 75.34 0 0 0 8.786.51c17.263 0 33.149-5.889 45.752-15.767-16.117-.302-29.718-10.958-34.407-25.591a35.98 35.98 0 0 0 6.927.659c3.36 0 6.613-.44 9.706-1.289-16.859-3.383-29.557-18.284-29.557-36.117 0-.16 0-.314.006-.475a36.714 36.714 0 0 0 16.687 4.613c-9.89-6.62-16.39-17.88-16.39-30.667 0-6.75 1.816-13.084 4.986-18.522 18.172 22.285 45.319 36.954 75.939 38.486a36.867 36.867 0 0 1-.956-8.394c0-20.338 16.491-36.836 36.841-36.836 10.597 0 20.166 4.476 26.886 11.63a73.582 73.582 0 0 0 23.395-8.94c-2.76 8.607-8.596 15.826-16.206 20.38a73.652 73.652 0 0 0 21.163-5.8 74.427 74.427 0 0 1-18.379 19.085z"/>
</svg>
