<?xml version="1.0" encoding="UTF-8" standalone="no"?>
<!-- Created with Inkscape (http://www.inkscape.org/) -->

<svg
   xmlns:dc="http://purl.org/dc/elements/1.1/"
   xmlns:cc="http://creativecommons.org/ns#"
   xmlns:rdf="http://www.w3.org/1999/02/22-rdf-syntax-ns#"
   xmlns:svg="http://www.w3.org/2000/svg"
   xmlns="http://www.w3.org/2000/svg"
   xmlns:sodipodi="http://sodipodi.sourceforge.net/DTD/sodipodi-0.dtd"
   xmlns:inkscape="http://www.inkscape.org/namespaces/inkscape"
   width="40.923283"
   height="40.209"
   viewBox="0 0 10.827618 10.638631"
   version="1.1"
   id="svg8"
   inkscape:version="0.92.3 (2405546, 2018-03-11)"
   sodipodi:docname="js.svg">
  <defs
     id="defs2" />
  <sodipodi:namedview
     id="base"
     pagecolor="#ffffff"
     bordercolor="#666666"
     borderopacity="1.0"
     inkscape:pageopacity="0.0"
     inkscape:pageshadow="2"
     inkscape:zoom="7.9195959"
     inkscape:cx="-17.604781"
     inkscape:cy="8.8960465"
     inkscape:document-units="mm"
     inkscape:current-layer="layer1"
     showgrid="false"
     fit-margin-top="1"
     fit-margin-left="1"
     fit-margin-bottom="1"
     fit-margin-right="1"
     units="px"
     inkscape:snap-global="false"
     inkscape:window-width="1920"
     inkscape:window-height="1017"
     inkscape:window-x="0"
     inkscape:window-y="30"
     inkscape:window-maximized="1" />
  <metadata
     id="metadata5">
    <rdf:RDF>
      <cc:Work
         rdf:about="">
        <dc:format>image/svg+xml</dc:format>
        <dc:type
           rdf:resource="http://purl.org/dc/dcmitype/StillImage" />
        <dc:title />
      </cc:Work>
    </rdf:RDF>
  </metadata>
  <g
     inkscape:label="Layer 1"
     inkscape:groupmode="layer"
     id="layer1"
     transform="translate(0.12214242,-286.38902)">
    <text
       xml:space="preserve"
       style="font-style:normal;font-variant:normal;font-weight:normal;font-stretch:normal;font-size:10.58333302px;line-height:1.25;font-family:'EYFA Tokva';-inkscape-font-specification:'EYFA Tokva, Normal';font-variant-ligatures:normal;font-variant-caps:normal;font-variant-numeric:normal;font-feature-settings:normal;text-align:start;letter-spacing:0px;word-spacing:0px;writing-mode:lr-tb;text-anchor:start;fill:#000000;fill-opacity:1;stroke:none;stroke-width:0.26458332"
       x="-2.9293156"
       y="300.82703"
       id="text1470"><tspan
         sodipodi:role="line"
         id="tspan1468"
         x="-2.9293156"
         y="310.16199"
         style="stroke-width:0.26458332" /></text>
    <g
       id="g1491"
       transform="translate(-12.130673,4.5289317)"
       style="fill:#ffffff;fill-opacity:1">
      <path
         style="fill:#ffffff;fill-opacity:1;stroke:#262829;stroke-width:0.35295418;stroke-linecap:round;stroke-linejoin:round;stroke-miterlimit:4;stroke-dasharray:none;stroke-opacity:1;paint-order:normal"
         d="m 12.449591,282.30115 h 9.945498 v 9.75651 h -9.945498 z"
         id="rect1466"
         inkscape:connector-curvature="0" />
      <g
         id="text1474"
         style="font-style:normal;font-variant:normal;font-weight:normal;font-stretch:normal;font-size:3.88746166px;line-height:1.25;font-family:'EYFA Tokva';-inkscape-font-specification:'EYFA Tokva, Normal';font-variant-ligatures:normal;font-variant-caps:normal;font-variant-numeric:normal;font-feature-settings:normal;text-align:start;letter-spacing:0px;word-spacing:0px;writing-mode:lr-tb;text-anchor:start;fill:#ffffff;fill-opacity:1;stroke:#262829;stroke-width:0.26499999;stroke-miterlimit:4;stroke-dasharray:none;stroke-opacity:1"
         aria-label="js">
        <path
           id="path1480"
           style="stroke:#262829;stroke-width:0.26499999;stroke-miterlimit:4;stroke-dasharray:none;stroke-opacity:1;fill:#ffffff;fill-opacity:1"
           d="m 14.554198,289.14446 q 0.911124,0 2.737168,0 0,0.019 0,0.0607 -0.911124,0 -2.737168,0 0,-0.019 0,-0.0607 z m 0,2.28919 q 0,-0.019 0,-0.0607 0.189818,0 0.36445,-0.0532 0.174632,-0.0493 0.326486,-0.14426 0.28093,-0.17463 0.451765,-0.46695 0.170836,-0.29611 0.170836,-0.64917 0,-0.46316 0,-1.39326 0.01898,0 0.06074,0 0,0.17463 0,0.52389 0,0.29232 0,0.86937 0,0.2012 -0.05315,0.38343 -0.05694,0.18222 -0.151854,0.34167 -0.182225,0.29232 -0.493526,0.47075 -0.307504,0.17842 -0.67575,0.17842 z m 0,-2.7979 q 0.911124,0 2.737168,0 0,0.019 0,0.0607 -0.911124,0 -2.737168,0 0,-0.019 0,-0.0607 z"
           inkscape:connector-curvature="0" />
        <path
           id="path1482"
           style="stroke:#262829;stroke-width:0.26499999;stroke-miterlimit:4;stroke-dasharray:none;stroke-opacity:1;fill:#ffffff;fill-opacity:1"
           d="m 20.290482,291.43365 q -0.728899,0 -2.182901,0 -0.19741,0 -0.584638,0 0,-0.019 0,-0.0607 0.903531,0 2.706797,0 0,-0.7213 0,-2.16392 -0.911123,0 -2.737167,0 0,-0.18981 0,-0.57324 0.922512,0 2.767538,0 0,0.019 0,0.0607 -0.903531,0 -2.706797,0 0,0.15185 0,0.45176 0.91492,0 2.737168,0 0,0.76307 0,2.2854 z"
           inkscape:connector-curvature="0" />
      </g>
      <g
         aria-label="&lt;/&gt;"
         style="font-style:normal;font-variant:normal;font-weight:normal;font-stretch:normal;font-size:4.972054px;line-height:1.25;font-family:FreeMono;-inkscape-font-specification:FreeMono;font-variant-ligatures:normal;font-variant-caps:normal;font-variant-numeric:normal;font-feature-settings:normal;text-align:start;letter-spacing:0px;word-spacing:0px;writing-mode:lr-tb;text-anchor:start;fill:#ffffff;fill-opacity:1;stroke:#262829;stroke-width:0.12430134;stroke-opacity:1"
         id="text1478">
        <path
           d="m 15.544846,286.36713 q 0,0.0348 -0.02983,0.0746 -0.02983,0.0398 -0.06961,0.0398 -0.02486,0 -0.06464,-0.0249 l -2.073347,-1.15352 2.078319,-1.15352 q 0.03978,-0.0249 0.05966,-0.0249 0.03481,0 0.06464,0.0348 0.03481,0.0348 0.03481,0.0746 0,0.0547 -0.06464,0.0895 l -1.765079,0.9795 1.765079,0.97949 q 0.06464,0.0348 0.06464,0.0845 z"
           style="fill:#ffffff;fill-opacity:1;stroke:#262829;stroke-width:0.12430134;stroke-opacity:1"
           id="path1494"
           inkscape:connector-curvature="0" />
        <path
           d="m 18.327253,283.55295 -1.625861,3.46055 q -0.04475,0.0895 -0.109385,0.0895 -0.03978,0 -0.06961,-0.0298 -0.02983,-0.0298 -0.02983,-0.0646 0,-0.0249 0.02486,-0.0795 l 1.625861,-3.46055 q 0.03978,-0.0895 0.109386,-0.0895 0.03978,0 0.06961,0.0298 0.02983,0.0298 0.02983,0.0646 0,0.0298 -0.02486,0.0796 z"
           style="fill:#ffffff;fill-opacity:1;stroke:#262829;stroke-width:0.12430134;stroke-opacity:1"
           id="path1496"
           inkscape:connector-curvature="0" />
        <path
           d="m 19.299834,284.23412 q 0,-0.0249 0.02486,-0.0646 0.02983,-0.0448 0.07458,-0.0448 0.02486,0 0.06464,0.0249 l 2.073346,1.15352 -2.078319,1.15352 q -0.03978,0.0249 -0.05966,0.0249 -0.03978,0 -0.06961,-0.0348 -0.02983,-0.0348 -0.02983,-0.0796 0,-0.0497 0.06464,-0.0845 l 1.76508,-0.97949 -1.76508,-0.9795 q -0.06464,-0.0348 -0.06464,-0.0895 z"
           style="fill:#ffffff;fill-opacity:1;stroke:#262829;stroke-width:0.12430134;stroke-opacity:1"
           id="path1498"
           inkscape:connector-curvature="0" />
      </g>
    </g>
  </g>
</svg>
