<?xml version="1.0" encoding="UTF-8" standalone="no"?>
<!-- Created with Inkscape (http://www.inkscape.org/) -->

<svg
   xmlns:dc="http://purl.org/dc/elements/1.1/"
   xmlns:cc="http://creativecommons.org/ns#"
   xmlns:rdf="http://www.w3.org/1999/02/22-rdf-syntax-ns#"
   xmlns:svg="http://www.w3.org/2000/svg"
   xmlns="http://www.w3.org/2000/svg"
   xmlns:sodipodi="http://sodipodi.sourceforge.net/DTD/sodipodi-0.dtd"
   xmlns:inkscape="http://www.inkscape.org/namespaces/inkscape"
   width="41.387371"
   height="41.387371"
   viewBox="0 0 10.950408 10.950408"
   version="1.1"
   id="svg8"
   inkscape:version="0.92.3 (2405546, 2018-03-11)"
   sodipodi:docname="pug.svg">
  <defs
     id="defs2" />
  <sodipodi:namedview
     id="base"
     pagecolor="#ffffff"
     bordercolor="#666666"
     borderopacity="1.0"
     inkscape:pageopacity="0.0"
     inkscape:pageshadow="2"
     inkscape:zoom="7.919596"
     inkscape:cx="7.6304474"
     inkscape:cy="25.435803"
     inkscape:document-units="mm"
     inkscape:current-layer="layer1"
     showgrid="false"
     fit-margin-top="1"
     fit-margin-left="1"
     fit-margin-bottom="1"
     fit-margin-right="1"
     units="px"
     inkscape:snap-global="false"
     inkscape:window-width="1190"
     inkscape:window-height="761"
     inkscape:window-x="612"
     inkscape:window-y="68"
     inkscape:window-maximized="0" />
  <metadata
     id="metadata5">
    <rdf:RDF>
      <cc:Work
         rdf:about="">
        <dc:format>image/svg+xml</dc:format>
        <dc:type
           rdf:resource="http://purl.org/dc/dcmitype/StillImage" />
        <dc:title></dc:title>
        <cc:license
           rdf:resource="http://creativecommons.org/publicdomain/zero/1.0/" />
      </cc:Work>
      <cc:License
         rdf:about="http://creativecommons.org/publicdomain/zero/1.0/">
        <cc:permits
           rdf:resource="http://creativecommons.org/ns#Reproduction" />
        <cc:permits
           rdf:resource="http://creativecommons.org/ns#Distribution" />
        <cc:permits
           rdf:resource="http://creativecommons.org/ns#DerivativeWorks" />
      </cc:License>
    </rdf:RDF>
  </metadata>
  <g
     inkscape:label="Layer 1"
     inkscape:groupmode="layer"
     id="layer1"
     transform="translate(0.19663167,-286.24623)">
    <g
       id="g4651"
       transform="matrix(0.89653153,0,0,0.89653153,0.48626197,30.00426)">
      <rect
         y="286.26465"
         x="-0.31185079"
         height="11.314482"
         width="11.314482"
         id="rect4639"
         style="fill:#fffdff;fill-opacity:1;stroke:#262829;stroke-width:0.30947322;stroke-linecap:round;stroke-linejoin:round;stroke-miterlimit:4;stroke-dasharray:none;stroke-opacity:1;paint-order:normal" />
      <g
         transform="translate(0.02031471,-0.15336646)"
         id="g4637">
        <g
           id="g4622">
          <path
             sodipodi:nodetypes="cscc"
             inkscape:connector-curvature="0"
             id="path4539"
             d="m 2.6637798,288.21487 c 0.016797,-0.1194 -1.5575849,-0.46652 -1.66945813,-0.4211 -0.11209929,0.0452 -0.50630165,2.88401 -0.41104703,2.9582 0.0949394,0.0746 2.06390016,-2.41755 2.08051296,-2.53714 z"
             inkscape:transform-center-y="-0.99420769"
             inkscape:transform-center-x="-0.04296646"
             style="fill:#262829;fill-opacity:1;stroke:#262829;stroke-width:0.80277985;stroke-linecap:round;stroke-linejoin:round;stroke-miterlimit:4;stroke-dasharray:none;stroke-opacity:1;paint-order:normal" />
          <path
             transform="matrix(-1.3730167,-1.8353994,-2.350996,1.0719005,676.21225,-5.5619166)"
             inkscape:transform-center-y="-1.6119084"
             inkscape:transform-center-x="1.8094223"
             d="m 3.5464187,283.25451 c 0.1595694,0.27953 -0.7231802,1.79135 -1.0450498,1.78978 -0.3218697,-0.002 -1.1897665,-1.52197 -1.0274663,-1.79993 0.1623002,-0.27796 1.9129467,-0.26939 2.0725161,0.0102 z"
             inkscape:randomized="0"
             inkscape:rounded="0.1553038"
             inkscape:flatsided="true"
             sodipodi:arg2="0.52849707"
             sodipodi:arg1="-0.51870048"
             sodipodi:r2="0.6827358"
             sodipodi:r1="1.1965821"
             sodipodi:cy="283.84772"
             sodipodi:cx="2.50723"
             sodipodi:sides="3"
             id="path4539-7"
             style="fill:#262829;fill-opacity:1;stroke:#262829;stroke-width:0.26499999;stroke-linecap:round;stroke-linejoin:round;stroke-miterlimit:4;stroke-dasharray:none;stroke-opacity:1;paint-order:normal"
             sodipodi:type="star" />
          <path
             sodipodi:nodetypes="cscc"
             inkscape:connector-curvature="0"
             id="path4539-2"
             d="m 7.9863709,288.04783 c -0.016797,-0.1194 1.5575849,-0.46652 1.6694581,-0.4211 0.1120993,0.0452 0.506302,2.88401 0.411047,2.9582 -0.09494,0.0746 -2.0639001,-2.41755 -2.0805129,-2.53714 z"
             inkscape:transform-center-y="-0.99420769"
             inkscape:transform-center-x="0.042966448"
             style="fill:#262829;fill-opacity:1;stroke:#262829;stroke-width:0.80277985;stroke-linecap:round;stroke-linejoin:round;stroke-miterlimit:4;stroke-dasharray:none;stroke-opacity:1;paint-order:normal" />
          <path
             inkscape:connector-curvature="0"
             id="path4572"
             d="m 2.5388656,290.5966 a 0.82538019,0.80743705 0 0 0 -0.8253634,0.80733 0.82538019,0.80743705 0 0 0 0.8253634,0.80763 0.82538019,0.80743705 0 0 0 0.8253632,-0.80763 0.82538019,0.80743705 0 0 0 -0.025678,-0.19778 0.45454426,0.45454426 0 0 1 -0.2066466,0.0498 0.45454426,0.45454426 0 0 1 -0.4545612,-0.45456 0.45454426,0.45454426 0 0 1 0.03974,-0.18525 0.82538019,0.80743705 0 0 0 -0.1782173,-0.0196 z"
             style="fill:#262829;fill-opacity:1;stroke:#262829;stroke-width:0.28465092;stroke-linecap:round;stroke-linejoin:round;stroke-miterlimit:4;stroke-dasharray:none;stroke-opacity:1;paint-order:normal" />
          <path
             inkscape:connector-curvature="0"
             id="path4572-9"
             d="m 8.0514946,290.37945 a 0.8253802,0.80743705 0 0 0 -0.8253634,0.80733 0.8253802,0.80743705 0 0 0 0.8253634,0.80763 0.8253802,0.80743705 0 0 0 0.8253633,-0.80763 0.8253802,0.80743705 0 0 0 -0.025678,-0.19778 0.45454427,0.45454427 0 0 1 -0.2066466,0.0498 0.45454427,0.45454427 0 0 1 -0.4545612,-0.45456 0.45454427,0.45454427 0 0 1 0.03974,-0.18525 0.8253802,0.80743705 0 0 0 -0.1782174,-0.0196 z"
             style="fill:#262829;fill-opacity:1;stroke:#262829;stroke-width:0.28465092;stroke-linecap:round;stroke-linejoin:round;stroke-miterlimit:4;stroke-dasharray:none;stroke-opacity:1;paint-order:normal" />
          <path
             transform="matrix(-0.57305904,0.53366756,-0.98124042,-0.31166978,285.36438,379.83867)"
             inkscape:transform-center-y="0.46868944"
             inkscape:transform-center-x="0.75518851"
             d="m 3.5464187,283.25451 c 0.1595694,0.27953 -0.7231802,1.79135 -1.0450498,1.78978 -0.3218697,-0.002 -1.1897665,-1.52197 -1.0274663,-1.79993 0.1623002,-0.27796 1.9129467,-0.26939 2.0725161,0.0102 z"
             inkscape:randomized="0"
             inkscape:rounded="0.1553038"
             inkscape:flatsided="true"
             sodipodi:arg2="0.52849707"
             sodipodi:arg1="-0.51870048"
             sodipodi:r2="0.6827358"
             sodipodi:r1="1.1965821"
             sodipodi:cy="283.84772"
             sodipodi:cx="2.50723"
             sodipodi:sides="3"
             id="path4539-7-3"
             style="fill:#fffdff;fill-opacity:1;stroke:#262829;stroke-width:0.26499999;stroke-linecap:round;stroke-linejoin:round;stroke-miterlimit:4;stroke-dasharray:none;stroke-opacity:1;paint-order:normal"
             sodipodi:type="star" />
        </g>
        <path
           style="fill:#fffdff;fill-opacity:1;stroke:#262829;stroke-width:0.26499999;stroke-linecap:round;stroke-linejoin:round;stroke-miterlimit:4;stroke-dasharray:none;stroke-opacity:1;paint-order:normal"
           d="m 4.3816269,294.72834 a 1.0523738,1.887591 0 0 0 -0.00517,0.18345 1.0523738,1.887591 0 0 0 1.0526488,1.88774 1.0523738,1.887591 0 0 0 1.0521323,-1.88774 1.0523738,1.887591 0 0 0 -0.0062,-0.18345 z"
           id="path4624"
           inkscape:connector-curvature="0" />
      </g>
    </g>
  </g>
</svg>
