<?xml version="1.0" encoding="UTF-8" standalone="no"?>
<!-- Created with Inkscape (http://www.inkscape.org/) -->

<svg
   xmlns:dc="http://purl.org/dc/elements/1.1/"
   xmlns:cc="http://creativecommons.org/ns#"
   xmlns:rdf="http://www.w3.org/1999/02/22-rdf-syntax-ns#"
   xmlns:svg="http://www.w3.org/2000/svg"
   xmlns="http://www.w3.org/2000/svg"
   xmlns:sodipodi="http://sodipodi.sourceforge.net/DTD/sodipodi-0.dtd"
   xmlns:inkscape="http://www.inkscape.org/namespaces/inkscape"
   width="41.387371"
   height="41.387371"
   viewBox="0 0 10.950408 10.950408"
   version="1.1"
   id="svg8"
   inkscape:version="0.92.3 (2405546, 2018-03-11)"
   sodipodi:docname="pug_color.svg">
  <defs
     id="defs2" />
  <sodipodi:namedview
     id="base"
     pagecolor="#ffffff"
     bordercolor="#666666"
     borderopacity="1.0"
     inkscape:pageopacity="0.0"
     inkscape:pageshadow="2"
     inkscape:zoom="7.919596"
     inkscape:cx="4.3472328"
     inkscape:cy="23.435777"
     inkscape:document-units="mm"
     inkscape:current-layer="layer1"
     showgrid="false"
     fit-margin-top="1"
     fit-margin-left="1"
     fit-margin-bottom="1"
     fit-margin-right="1"
     units="px"
     inkscape:snap-global="false"
     inkscape:window-width="1190"
     inkscape:window-height="761"
     inkscape:window-x="612"
     inkscape:window-y="68"
     inkscape:window-maximized="0" />
  <metadata
     id="metadata5">
    <rdf:RDF>
      <cc:Work
         rdf:about="">
        <dc:format>image/svg+xml</dc:format>
        <dc:type
           rdf:resource="http://purl.org/dc/dcmitype/StillImage" />
        <dc:title></dc:title>
        <cc:license
           rdf:resource="http://creativecommons.org/publicdomain/zero/1.0/" />
      </cc:Work>
      <cc:License
         rdf:about="http://creativecommons.org/publicdomain/zero/1.0/">
        <cc:permits
           rdf:resource="http://creativecommons.org/ns#Reproduction" />
        <cc:permits
           rdf:resource="http://creativecommons.org/ns#Distribution" />
        <cc:permits
           rdf:resource="http://creativecommons.org/ns#DerivativeWorks" />
      </cc:License>
    </rdf:RDF>
  </metadata>
  <g
     inkscape:label="Layer 1"
     inkscape:groupmode="layer"
     id="layer1"
     transform="translate(0.19663167,-286.24623)">
    <rect
       style="fill:#d29872;fill-opacity:1;stroke:#262829;stroke-width:0.2774525;stroke-linecap:round;stroke-linejoin:round;stroke-miterlimit:4;stroke-dasharray:none;stroke-opacity:1;paint-order:normal"
       id="rect4639"
       width="10.143789"
       height="10.143789"
       x="0.20667791"
       y="286.64954" />
    <path
       style="fill:#987864;fill-opacity:1;stroke:#262829;stroke-width:0.71971744;stroke-linecap:round;stroke-linejoin:round;stroke-miterlimit:4;stroke-dasharray:none;stroke-opacity:1;paint-order:normal"
       inkscape:transform-center-x="-0.04296646"
       inkscape:transform-center-y="-0.99420769"
       d="m 2.8926373,288.26048 c 0.015059,-0.10705 -1.3964239,-0.41825 -1.4967218,-0.37753 -0.1005006,0.0405 -0.45391541,2.58561 -0.3685166,2.65212 0.085116,0.0669 1.8503515,-2.16741 1.8652454,-2.27463 z"
       id="path4539"
       inkscape:connector-curvature="0"
       sodipodi:nodetypes="cscc" />
    <path
       sodipodi:type="star"
       style="fill:#987864;fill-opacity:1;stroke:#262829;stroke-width:0.26499999;stroke-linecap:round;stroke-linejoin:round;stroke-miterlimit:4;stroke-dasharray:none;stroke-opacity:1;paint-order:normal"
       id="path4539-7"
       sodipodi:sides="3"
       sodipodi:cx="2.50723"
       sodipodi:cy="283.84772"
       sodipodi:r1="1.1965821"
       sodipodi:r2="0.6827358"
       sodipodi:arg1="-0.51870048"
       sodipodi:arg2="0.52849707"
       inkscape:flatsided="true"
       inkscape:rounded="0.1553038"
       inkscape:randomized="0"
       d="m 3.5464187,283.25451 c 0.1595694,0.27953 -0.7231802,1.79135 -1.0450498,1.78978 -0.3218697,-0.002 -1.1897665,-1.52197 -1.0274663,-1.79993 0.1623002,-0.27796 1.9129467,-0.26939 2.0725161,0.0102 z"
       inkscape:transform-center-x="1.8094223"
       inkscape:transform-center-y="-1.6119084"
       transform="matrix(-1.2309528,-1.6454934,-2.107742,0.9609926,606.75008,24.880328)" />
    <path
       style="fill:#987864;fill-opacity:1;stroke:#262829;stroke-width:0.71971744;stroke-linecap:round;stroke-linejoin:round;stroke-miterlimit:4;stroke-dasharray:none;stroke-opacity:1;paint-order:normal"
       inkscape:transform-center-x="0.042966448"
       inkscape:transform-center-y="-0.99420769"
       d="m 7.6645081,288.11072 c -0.015059,-0.10704 1.3964239,-0.41825 1.4967218,-0.37753 0.1005006,0.0405 0.4539157,2.58561 0.3685166,2.65212 -0.085117,0.0669 -1.8503515,-2.16741 -1.8652454,-2.27462 z"
       id="path4539-2"
       inkscape:connector-curvature="0"
       sodipodi:nodetypes="cscc" />
    <path
       style="fill:#262829;fill-opacity:1;stroke:#262829;stroke-width:0.25519854;stroke-linecap:round;stroke-linejoin:round;stroke-miterlimit:4;stroke-dasharray:none;stroke-opacity:1;paint-order:normal"
       d="m 2.7806478,290.39578 a 0.73997936,0.72389277 0 0 0 -0.7399643,0.72379 0.73997936,0.72389277 0 0 0 0.7399643,0.72407 0.73997936,0.72389277 0 0 0 0.7399641,-0.72407 0.73997936,0.72389277 0 0 0 -0.023021,-0.17731 0.40751326,0.40751326 0 0 1 -0.1852652,0.0446 0.40751326,0.40751326 0 0 1 -0.4075284,-0.40752 0.40751326,0.40751326 0 0 1 0.035628,-0.16609 0.73997936,0.72389277 0 0 0 -0.1597774,-0.0176 z"
       id="path4572"
       inkscape:connector-curvature="0" />
    <path
       style="fill:#262829;fill-opacity:1;stroke:#262829;stroke-width:0.25519854;stroke-linecap:round;stroke-linejoin:round;stroke-miterlimit:4;stroke-dasharray:none;stroke-opacity:1;paint-order:normal"
       d="m 7.7228935,290.20109 a 0.73997937,0.72389277 0 0 0 -0.7399643,0.7238 0.73997937,0.72389277 0 0 0 0.7399643,0.72407 0.73997937,0.72389277 0 0 0 0.7399642,-0.72407 0.73997937,0.72389277 0 0 0 -0.023021,-0.17731 0.40751327,0.40751327 0 0 1 -0.1852652,0.0446 0.40751327,0.40751327 0 0 1 -0.4075284,-0.40752 0.40751327,0.40751327 0 0 1 0.035628,-0.16609 0.73997937,0.72389277 0 0 0 -0.1597775,-0.0176 z"
       id="path4572-9"
       inkscape:connector-curvature="0" />
    <path
       sodipodi:type="star"
       style="fill:#262829;fill-opacity:1;stroke:#262829;stroke-width:0.26499999;stroke-linecap:round;stroke-linejoin:round;stroke-miterlimit:4;stroke-dasharray:none;stroke-opacity:1;paint-order:normal"
       id="path4539-7-3"
       sodipodi:sides="3"
       sodipodi:cx="2.50723"
       sodipodi:cy="283.84772"
       sodipodi:r1="1.1965821"
       sodipodi:r2="0.6827358"
       sodipodi:arg1="-0.51870048"
       sodipodi:arg2="0.52849707"
       inkscape:flatsided="true"
       inkscape:rounded="0.1553038"
       inkscape:randomized="0"
       d="m 3.5464187,283.25451 c 0.1595694,0.27953 -0.7231802,1.79135 -1.0450498,1.78978 -0.3218697,-0.002 -1.1897665,-1.52197 -1.0274663,-1.79993 0.1623002,-0.27796 1.9129467,-0.26939 2.0725161,0.0102 z"
       inkscape:transform-center-x="0.59742671"
       inkscape:transform-center-y="0.37077612"
       transform="matrix(-0.40643952,0.37850129,-0.69594031,-0.22105037,203.90188,354.07753)" />
    <path
       style="fill:#ff9d8a;fill-opacity:1;stroke:#262829;stroke-width:0.23758084;stroke-linecap:round;stroke-linejoin:round;stroke-miterlimit:4;stroke-dasharray:none;stroke-opacity:1;paint-order:normal"
       d="m 4.4327414,294.10001 a 0.94348629,1.6922848 0 0 0 -0.00464,0.16447 0.94348629,1.6922848 0 0 0 0.9437328,1.69242 0.94348629,1.6922848 0 0 0 0.9432698,-1.69242 0.94348629,1.6922848 0 0 0 -0.00556,-0.16447 z"
       id="path4624"
       inkscape:connector-curvature="0" />
  </g>
</svg>
