<?xml version="1.0" encoding="UTF-8" standalone="no"?>
<!-- Created with Inkscape (http://www.inkscape.org/) -->

<svg
   xmlns:dc="http://purl.org/dc/elements/1.1/"
   xmlns:cc="http://creativecommons.org/ns#"
   xmlns:rdf="http://www.w3.org/1999/02/22-rdf-syntax-ns#"
   xmlns:svg="http://www.w3.org/2000/svg"
   xmlns="http://www.w3.org/2000/svg"
   xmlns:sodipodi="http://sodipodi.sourceforge.net/DTD/sodipodi-0.dtd"
   xmlns:inkscape="http://www.inkscape.org/namespaces/inkscape"
   width="41.387371"
   height="41.387371"
   viewBox="0 0 10.950408 10.950408"
   version="1.1"
   id="svg8"
   inkscape:version="0.92.3 (2405546, 2018-03-11)"
   sodipodi:docname="react.svg">
  <defs
     id="defs2">
    <inkscape:path-effect
       effect="spiro"
       id="path-effect4802"
       is_visible="true" />
    <inkscape:path-effect
       effect="spiro"
       id="path-effect4802-1"
       is_visible="true" />
  </defs>
  <sodipodi:namedview
     id="base"
     pagecolor="#ffffff"
     bordercolor="#666666"
     borderopacity="1.0"
     inkscape:pageopacity="0.0"
     inkscape:pageshadow="2"
     inkscape:zoom="11.313708"
     inkscape:cx="25.137252"
     inkscape:cy="19.303575"
     inkscape:document-units="mm"
     inkscape:current-layer="layer1"
     showgrid="false"
     fit-margin-top="1"
     fit-margin-left="1"
     fit-margin-bottom="1"
     fit-margin-right="1"
     units="px"
     inkscape:snap-global="false"
     inkscape:window-width="1920"
     inkscape:window-height="1017"
     inkscape:window-x="0"
     inkscape:window-y="30"
     inkscape:window-maximized="1" />
  <metadata
     id="metadata5">
    <rdf:RDF>
      <cc:Work
         rdf:about="">
        <dc:format>image/svg+xml</dc:format>
        <dc:type
           rdf:resource="http://purl.org/dc/dcmitype/StillImage" />
        <dc:title></dc:title>
        <cc:license
           rdf:resource="http://creativecommons.org/publicdomain/zero/1.0/" />
      </cc:Work>
      <cc:License
         rdf:about="http://creativecommons.org/publicdomain/zero/1.0/">
        <cc:permits
           rdf:resource="http://creativecommons.org/ns#Reproduction" />
        <cc:permits
           rdf:resource="http://creativecommons.org/ns#Distribution" />
        <cc:permits
           rdf:resource="http://creativecommons.org/ns#DerivativeWorks" />
      </cc:License>
    </rdf:RDF>
  </metadata>
  <g
     inkscape:label="Layer 1"
     inkscape:groupmode="layer"
     id="layer1"
     transform="translate(0.19663167,-286.24623)">
    <g
       id="g935">
      <path
         style="fill:#ffffff;fill-opacity:0.97247709;stroke:#262829;stroke-width:0.27921355;stroke-linecap:round;stroke-linejoin:round;stroke-miterlimit:4;stroke-dasharray:none;stroke-opacity:1;paint-order:normal"
         d="M 0.17448576,286.61734 H 10.38266 v 10.20817 H 0.17448576 Z"
         id="rect4639"
         inkscape:connector-curvature="0" />
      <path
         inkscape:connector-curvature="0"
         id="path925"
         d="m 6.6582637,293.20929 a 2.0284795,6.0418103 45.645529 0 1 -5.71217659,2.7229 2.0284795,6.0418103 45.645529 0 1 2.95279989,-5.69864 2.0284795,6.0418103 45.645529 0 1 5.7121764,-2.72289 2.0284795,6.0418103 45.645529 0 1 -2.9527997,5.69863 z"
         style="fill:none;fill-opacity:1;stroke:#262829;stroke-width:0.52916667;stroke-linecap:round;stroke-linejoin:round;stroke-miterlimit:4;stroke-dasharray:none;stroke-opacity:1;paint-order:normal" />
      <path
         inkscape:connector-curvature="0"
         id="path925-2-8"
         d="m 5.2785734,293.19437 a 4.3909781,1.4729394 0 0 1 -4.39097839,-1.47294 4.3909781,1.4729394 0 0 1 4.39097839,-1.47294 4.3909781,1.4729394 0 0 1 4.3909774,1.47294 4.3909781,1.4729394 0 0 1 -4.3909774,1.47294 z"
         style="fill:none;fill-opacity:1;stroke:#262829;stroke-width:0.396875;stroke-linecap:round;stroke-linejoin:round;stroke-miterlimit:4;stroke-dasharray:none;stroke-opacity:1;paint-order:normal" />
      <path
         inkscape:connector-curvature="0"
         id="path957"
         d="m 5.9033666,291.72143 a 0.62479371,0.62479371 0 0 1 -0.6247937,0.62479 0.62479371,0.62479371 0 0 1 -0.6247937,-0.62479 0.62479371,0.62479371 0 0 1 0.6247937,-0.6248 0.62479371,0.62479371 0 0 1 0.6247937,0.6248 z"
         style="fill:#ffffff;fill-opacity:1;stroke:#262829;stroke-width:0.49967751;stroke-linecap:round;stroke-linejoin:round;stroke-miterlimit:4;stroke-dasharray:none;stroke-opacity:1;paint-order:normal" />
      <path
         inkscape:connector-curvature="0"
         id="path925-6"
         d="m 4.17706,292.92492 a 4.854803,1.6302587 44.823913 0 0 4.5604665,2.2025 4.854803,1.6302587 44.823913 0 0 -2.3574455,-4.6095 4.854803,1.6302587 44.823913 0 0 -4.5604665,-2.20249 4.854803,1.6302587 44.823913 0 0 2.3574455,4.60949 z"
         style="fill:none;fill-opacity:1;stroke:#262829;stroke-width:0.32304052;stroke-linecap:round;stroke-linejoin:round;stroke-miterlimit:4;stroke-dasharray:none;stroke-opacity:1;paint-order:normal" />
      <path
         inkscape:connector-curvature="0"
         id="path957-8"
         d="m 5.2891014,289.26875 a 0.3407947,0.3407947 0 0 1 -0.3407947,0.34079 0.3407947,0.3407947 0 0 1 -0.3407947,-0.34079 0.3407947,0.3407947 0 0 1 0.3407947,-0.3408 0.3407947,0.3407947 0 0 1 0.3407947,0.3408 z"
         style="fill:#ffffff;fill-opacity:1;stroke:#262829;stroke-width:0.27254987;stroke-linecap:round;stroke-linejoin:round;stroke-miterlimit:4;stroke-dasharray:none;stroke-opacity:1;paint-order:normal" />
      <path
         inkscape:connector-curvature="0"
         id="path957-0"
         d="m 5.9071652,294.2266 a 0.37420635,0.37420635 0 0 1 -0.3742063,0.3742 0.37420635,0.37420635 0 0 1 -0.3742063,-0.3742 0.37420635,0.37420635 0 0 1 0.3742063,-0.37421 0.37420635,0.37420635 0 0 1 0.3742063,0.37421 z"
         style="fill:#ffffff;fill-opacity:1;stroke:#262829;stroke-width:0.29927078;stroke-linecap:round;stroke-linejoin:round;stroke-miterlimit:4;stroke-dasharray:none;stroke-opacity:1;paint-order:normal" />
      <path
         inkscape:connector-curvature="0"
         id="path957-2"
         d="m 8.0787257,292.05171 a 0.32408887,0.32408887 0 0 1 -0.3240889,0.32408 0.32408887,0.32408887 0 0 1 -0.3240889,-0.32408 0.32408887,0.32408887 0 0 1 0.3240889,-0.32409 0.32408887,0.32408887 0 0 1 0.3240889,0.32409 z"
         style="fill:#ffffff;fill-opacity:1;stroke:#262829;stroke-width:0.25918943;stroke-linecap:round;stroke-linejoin:round;stroke-miterlimit:4;stroke-dasharray:none;stroke-opacity:1;paint-order:normal" />
      <path
         inkscape:connector-curvature="0"
         id="path957-1"
         d="m 4.5440816,293.15085 a 0.27397135,0.27397135 0 0 1 -0.2739715,0.27397 0.27397135,0.27397135 0 0 1 -0.2739715,-0.27397 0.27397135,0.27397135 0 0 1 0.2739715,-0.27398 0.27397135,0.27397135 0 0 1 0.2739715,0.27398 z"
         style="fill:#ffffff;fill-opacity:1;stroke:#262829;stroke-width:0.21910803;stroke-linecap:round;stroke-linejoin:round;stroke-miterlimit:4;stroke-dasharray:none;stroke-opacity:1;paint-order:normal" />
      <path
         inkscape:connector-curvature="0"
         id="path957-05"
         d="m 6.3681963,290.25098 a 0.2739714,0.2739714 0 0 1 -0.273971,0.27397 0.2739714,0.2739714 0 0 1 -0.273972,-0.27397 0.2739714,0.2739714 0 0 1 0.273972,-0.27398 0.2739714,0.2739714 0 0 1 0.273971,0.27398 z"
         style="fill:#ffffff;fill-opacity:1;stroke:#262829;stroke-width:0.21910807;stroke-linecap:round;stroke-linejoin:round;stroke-miterlimit:4;stroke-dasharray:none;stroke-opacity:1;paint-order:normal" />
      <path
         inkscape:connector-curvature="0"
         id="path957-11"
         d="m 2.6297678,290.62515 a 0.32408887,0.32408887 0 0 1 -0.324089,0.32408 0.32408887,0.32408887 0 0 1 -0.324088,-0.32408 0.32408887,0.32408887 0 0 1 0.324088,-0.32409 0.32408887,0.32408887 0 0 1 0.324089,0.32409 z"
         style="fill:#ffffff;fill-opacity:1;stroke:#262829;stroke-width:0.25918943;stroke-linecap:round;stroke-linejoin:round;stroke-miterlimit:4;stroke-dasharray:none;stroke-opacity:1;paint-order:normal" />
    </g>
  </g>
</svg>
