<?xml version="1.0" encoding="UTF-8" standalone="no"?>
<!-- Created with Inkscape (http://www.inkscape.org/) -->

<svg
   xmlns:dc="http://purl.org/dc/elements/1.1/"
   xmlns:cc="http://creativecommons.org/ns#"
   xmlns:rdf="http://www.w3.org/1999/02/22-rdf-syntax-ns#"
   xmlns:svg="http://www.w3.org/2000/svg"
   xmlns="http://www.w3.org/2000/svg"
   xmlns:sodipodi="http://sodipodi.sourceforge.net/DTD/sodipodi-0.dtd"
   xmlns:inkscape="http://www.inkscape.org/namespaces/inkscape"
   width="41.387371"
   height="41.387371"
   viewBox="0 0 10.950408 10.950408"
   version="1.1"
   id="svg8"
   inkscape:version="0.92.3 (2405546, 2018-03-11)"
   sodipodi:docname="stylus.svg">
  <defs
     id="defs2">
    <inkscape:path-effect
       effect="spiro"
       id="path-effect4802"
       is_visible="true" />
    <inkscape:path-effect
       effect="spiro"
       id="path-effect4802-1"
       is_visible="true" />
  </defs>
  <sodipodi:namedview
     id="base"
     pagecolor="#ffffff"
     bordercolor="#666666"
     borderopacity="1.0"
     inkscape:pageopacity="0.0"
     inkscape:pageshadow="2"
     inkscape:zoom="8"
     inkscape:cx="4.6497421"
     inkscape:cy="17.907216"
     inkscape:document-units="mm"
     inkscape:current-layer="layer1"
     showgrid="false"
     fit-margin-top="1"
     fit-margin-left="1"
     fit-margin-bottom="1"
     fit-margin-right="1"
     units="px"
     inkscape:snap-global="false"
     inkscape:window-width="1190"
     inkscape:window-height="761"
     inkscape:window-x="628"
     inkscape:window-y="97"
     inkscape:window-maximized="0" />
  <metadata
     id="metadata5">
    <rdf:RDF>
      <cc:Work
         rdf:about="">
        <dc:format>image/svg+xml</dc:format>
        <dc:type
           rdf:resource="http://purl.org/dc/dcmitype/StillImage" />
        <dc:title></dc:title>
        <cc:license
           rdf:resource="http://creativecommons.org/publicdomain/zero/1.0/" />
      </cc:Work>
      <cc:License
         rdf:about="http://creativecommons.org/publicdomain/zero/1.0/">
        <cc:permits
           rdf:resource="http://creativecommons.org/ns#Reproduction" />
        <cc:permits
           rdf:resource="http://creativecommons.org/ns#Distribution" />
        <cc:permits
           rdf:resource="http://creativecommons.org/ns#DerivativeWorks" />
      </cc:License>
    </rdf:RDF>
  </metadata>
  <g
     inkscape:label="Layer 1"
     inkscape:groupmode="layer"
     id="layer1"
     transform="translate(0.19663167,-286.24623)">
    <rect
       style="fill:#ffffff;fill-opacity:0.97142855;stroke:#262829;stroke-width:0.27921355;stroke-linecap:round;stroke-linejoin:round;stroke-miterlimit:4;stroke-dasharray:none;stroke-opacity:1;paint-order:normal"
       id="rect4639"
       width="10.208174"
       height="10.208174"
       x="0.17448549"
       y="286.61734" />
    <g
       id="g4869"
       transform="matrix(0.39196672,0,0,0.39196672,3.6083675,171.46584)"
       style="stroke:#262829;stroke-width:0.48082513;stroke-miterlimit:4;stroke-dasharray:none;stroke-opacity:1">
      <g
         transform="translate(-0.56126601,0.09354433)"
         id="text4786"
         style="font-style:normal;font-variant:normal;font-weight:normal;font-stretch:normal;font-size:5.64444447px;line-height:1.25;font-family:'EYFA Tokva';-inkscape-font-specification:'EYFA Tokva, Normal';font-variant-ligatures:normal;font-variant-caps:normal;font-variant-numeric:normal;font-feature-settings:normal;text-align:start;letter-spacing:0px;word-spacing:0px;writing-mode:lr-tb;text-anchor:start;fill:#000000;fill-opacity:1;stroke:#262829;stroke-width:0.48082513;stroke-miterlimit:4;stroke-dasharray:none;stroke-opacity:1"
         aria-label="st">
        <path
           id="path4838"
           style="font-style:normal;font-variant:normal;font-weight:normal;font-stretch:normal;font-size:5.64444447px;font-family:'EYFA Tokva';-inkscape-font-specification:'EYFA Tokva, Normal';font-variant-ligatures:normal;font-variant-caps:normal;font-variant-numeric:normal;font-feature-settings:normal;text-align:start;writing-mode:lr-tb;text-anchor:start;stroke:#262829;stroke-width:0.48082513;stroke-miterlimit:4;stroke-dasharray:none;stroke-opacity:1"
           d="m -1.3233581,308.40942 q -1.0583333,0 -3.1694878,0 -0.286632,0 -0.8488715,0 0,-0.0276 0,-0.0882 1.3118923,0 3.9301649,0 0,-1.04731 0,-3.14193 -1.3229167,0 -3.9742622,0 0,-0.27561 0,-0.83233 1.3394532,0 4.0183594,0 0,0.0276 0,0.0882 -1.3118923,0 -3.9301649,0 0,0.22049 0,0.65595 1.3284288,0 3.9742621,0 0,1.10794 0,3.31831 z"
           inkscape:connector-curvature="0" />
        <path
           id="path4840"
           style="font-style:normal;font-variant:normal;font-weight:normal;font-stretch:normal;font-size:5.64444447px;font-family:'EYFA Tokva';-inkscape-font-specification:'EYFA Tokva, Normal';font-variant-ligatures:normal;font-variant-caps:normal;font-variant-numeric:normal;font-feature-settings:normal;text-align:start;writing-mode:lr-tb;text-anchor:start;stroke:#262829;stroke-width:0.48082513;stroke-miterlimit:4;stroke-dasharray:none;stroke-opacity:1"
           d="m -1.0312138,304.34697 q 1.33945317,0 4.0183594,0 0,0.0276 0,0.0882 -1.3394531,0 -4.0183594,0 0,-0.0276 0,-0.0882 z m 1.96232644,0.0441 q 0.0330729,0 0.0937066,0 0,1.33946 0,4.01836 -0.0275607,0 -0.071658,0 -0.005512,0 -0.0220486,0 0,-0.67248 0,-2.01193 0,-0.66697 0,-2.00643 z"
           inkscape:connector-curvature="0" />
      </g>
      <g
         transform="translate(-0.94472483,-0.14472)"
         id="text4790"
         style="font-style:normal;font-variant:normal;font-weight:normal;font-stretch:normal;font-size:5.64444447px;line-height:1.25;font-family:'EYFA Tokva';-inkscape-font-specification:'EYFA Tokva, Normal';font-variant-ligatures:normal;font-variant-caps:normal;font-variant-numeric:normal;font-feature-settings:normal;text-align:start;letter-spacing:0px;word-spacing:0px;writing-mode:lr-tb;text-anchor:start;fill:#000000;fill-opacity:1;stroke:#262829;stroke-width:0.48082513;stroke-miterlimit:4;stroke-dasharray:none;stroke-opacity:1"
         aria-label="us">
        <path
           inkscape:connector-curvature="0"
           id="path4822"
           style="font-style:normal;font-variant:normal;font-weight:normal;font-stretch:normal;font-size:5.64444447px;font-family:'EYFA Tokva';-inkscape-font-specification:'EYFA Tokva, Normal';font-variant-ligatures:normal;font-variant-caps:normal;font-variant-numeric:normal;font-feature-settings:normal;text-align:start;writing-mode:lr-tb;text-anchor:start;stroke:#262829;stroke-width:0.48082513;stroke-miterlimit:4;stroke-dasharray:none;stroke-opacity:1"
           d="m 11.059382,308.68921 q -1.0748696,0 -3.2356335,0 -0.292144,0 -0.8709201,0 0,-1.35599 0,-4.06246 0.027561,0 0.088195,0 0,1.32292 0,3.97426 1.3118923,0 3.9301646,0 0,-1.32842 0,-3.97426 0.03307,0 0.08819,0 0,1.35048 0,4.06246 z" />
        <path
           inkscape:connector-curvature="0"
           id="path4824"
           style="font-style:normal;font-variant:normal;font-weight:normal;font-stretch:normal;font-size:5.64444447px;font-family:'EYFA Tokva';-inkscape-font-specification:'EYFA Tokva, Normal';font-variant-ligatures:normal;font-variant-caps:normal;font-variant-numeric:normal;font-feature-settings:normal;text-align:start;writing-mode:lr-tb;text-anchor:start;stroke:#262829;stroke-width:0.48082513;stroke-miterlimit:4;stroke-dasharray:none;stroke-opacity:1"
           d="m 15.413983,308.68921 q -1.058333,0 -3.169488,0 -0.286632,0 -0.848872,0 0,-0.0276 0,-0.0882 1.311893,0 3.930165,0 0,-1.0473 0,-3.14192 -1.322916,0 -3.974262,0 0,-0.27561 0,-0.83234 1.339453,0 4.01836,0 0,0.0276 0,0.0882 -1.311893,0 -3.930165,0 0,0.22048 0,0.65594 1.328429,0 3.974262,0 0,1.10795 0,3.31832 z" />
      </g>
      <path
         id="path4800"
         d="m 2.9871456,304.34697 c 0.9231886,1.03301 1.4354927,2.42355 1.403165,3.80859 -0.023987,1.0277 -0.3421304,2.04688 -0.9070348,2.90573 -0.5649045,0.85885 -1.3747654,1.55461 -2.308934,1.98363 -0.93416866,0.42903 -1.98966081,0.58995 -3.0092349,0.45879 -1.0195742,-0.13116 -1.9999732,-0.55398 -2.7951426,-1.20547"
         style="fill:none;stroke:#262829;stroke-width:0.48082513;stroke-linecap:butt;stroke-linejoin:miter;stroke-miterlimit:4;stroke-dasharray:none;stroke-opacity:1"
         inkscape:connector-curvature="0" />
      <path
         id="path4800-4"
         d="m 6.1016479,310.18152 c -0.9231886,-1.03301 -1.4354927,-2.42355 -1.403165,-3.80859 0.023987,-1.0277 0.3421304,-2.04688 0.9070348,-2.90573 0.5649044,-0.85885 1.3747652,-1.55461 2.3089338,-1.98363 0.9341685,-0.42903 1.9896611,-0.58995 3.0092355,-0.45879 1.019574,0.13116 1.999973,0.55398 2.795142,1.20547"
         style="fill:none;stroke:#262829;stroke-width:0.48082513;stroke-linecap:butt;stroke-linejoin:miter;stroke-miterlimit:4;stroke-dasharray:none;stroke-opacity:1"
         inkscape:connector-curvature="0" />
    </g>
  </g>
</svg>
